<svg xmlns="http://www.w3.org/2000/svg" viewBox="0 0 24 24" id="louis-vuitton">
  <path d="m19.367 3.11-6.233 15.085-1.719-3.87 3.176-8.866c.239-.685 1.075-1.004 2.484-1.004l.502-1.347h-7.403l-.478 1.349c1.051 0 1.481.319 1.313 1.004L9.433 9.968 6.328 3.11c-.573-.735-.286-1.102.836-1.102V.417H0v1.592c1.337 0 2.173.368 2.531 1.102l5.254 11.461-2.46 6.734c-.048.906-1.433 1.347-4.107 1.347L.716 24h20.442L24 17.804h-1.481c-1.385 3.208-2.985 4.849-4.776 4.849H8.358l1.385-3.796 1.194 2.449h2.675L21.158 3.11c.358-1.102 1.29-1.69 2.746-1.69V0h-6.161v1.421c1.863 0 2.388.587 1.624 1.689z"></path>
</svg>
